<?xml version="1.0" encoding="utf-8"?>
<svg width="16" height="16" viewBox="0 0 24 24" fill="none" xmlns="http://www.w3.org/2000/svg">
    <path opacity="0.4" d="M18.5 20C18.5 21.1 17.6 22 16.5 22H7.5C6.4 22 5.5 21.1 5.5 20V19C5.5 17 7.1 15.4 9.1 15.1L12 17L14.9 15.1C16.9 15.4 18.5 17 18.5 19V20Z" fill="#FFFFFF"/>

    <path d="M12 14C14.2091 14 16 12.2091 16 10C16 7.79086 14.2091 6 12 6C9.79086 6 8 7.79086 8 10C8 12.2091 9.79086 14 12 14Z" fill="#FFFFFF"/>
    <path d="M12 2L4 5.5L12 9L20 5.5L12 2Z" fill="#FFFFFF"/>
    <path d="M20 5.5V9.5C20 9.77 20.22 10 20.5 10C20.78 10 21 9.77 21 9.5V5.5L20 5.5Z" fill="#FFFFFF"/>
</svg>
